<svg width="25" height="24" viewBox="0 0 25 24" fill="#ffffff" xmlns="http://www.w3.org/2000/svg">
<path d="M22.6943 11.4104C22.3543 5.61044 17.0843 1.14045 11.0143 2.14045C6.83427 2.83045 3.48428 6.22043 2.83428 10.4004C2.45428 12.8204 2.9543 15.1104 4.0443 17.0004L3.15429 20.3104C2.95429 21.0604 3.64427 21.7404 4.38427 21.5304L7.64428 20.6304C9.12428 21.5004 10.8543 22.0004 12.7043 22.0004C18.3443 22.0004 23.0243 17.0304 22.6943 11.4104ZM17.5943 15.7204C17.5043 15.9004 17.3943 16.0704 17.2543 16.2304C17.0043 16.5004 16.7343 16.7004 16.4343 16.8204C16.1343 16.9504 15.8043 17.0104 15.4543 17.0104C14.9443 17.0104 14.3943 16.8905 13.8243 16.6405C13.2443 16.3905 12.6743 16.0604 12.1043 15.6504C11.5243 15.2304 10.9843 14.7604 10.4643 14.2504C9.94429 13.7304 9.48426 13.1804 9.06426 12.6104C8.65426 12.0404 8.32428 11.4704 8.08428 10.9004C7.84428 10.3304 7.7243 9.78045 7.7243 9.26045C7.7243 8.92044 7.78429 8.59044 7.90429 8.29044C8.02429 7.98044 8.21431 7.70045 8.48431 7.45045C8.80431 7.13045 9.15428 6.98045 9.52428 6.98045C9.66428 6.98045 9.80426 7.01044 9.93426 7.07044C10.0643 7.13044 10.1843 7.22044 10.2743 7.35044L11.4343 8.99043C11.5243 9.12043 11.5943 9.23043 11.6343 9.34043C11.6843 9.45043 11.7043 9.55043 11.7043 9.65043C11.7043 9.77043 11.6643 9.89045 11.5943 10.0104C11.5243 10.1304 11.4343 10.2504 11.3143 10.3704L10.9343 10.7704C10.8743 10.8304 10.8543 10.8904 10.8543 10.9704C10.8543 11.0104 10.8643 11.0504 10.8743 11.0904C10.8943 11.1304 10.9043 11.1604 10.9143 11.1904C11.0043 11.3604 11.1643 11.5704 11.3843 11.8304C11.6143 12.0904 11.8543 12.3604 12.1143 12.6204C12.3843 12.8904 12.6443 13.1304 12.9143 13.3604C13.1743 13.5804 13.3943 13.7304 13.5643 13.8204C13.5943 13.8304 13.6243 13.8504 13.6543 13.8604C13.6943 13.8804 13.7343 13.8804 13.7843 13.8804C13.8743 13.8804 13.9343 13.8504 13.9943 13.7904L14.3743 13.4104C14.5043 13.2804 14.6243 13.1904 14.7343 13.1304C14.8543 13.0604 14.9643 13.0204 15.0943 13.0204C15.1943 13.0204 15.2943 13.0404 15.4043 13.0904C15.5143 13.1404 15.6343 13.2004 15.7543 13.2904L17.4143 14.4704C17.5443 14.5604 17.6343 14.6704 17.6943 14.7904C17.7443 14.9204 17.7743 15.0404 17.7743 15.1804C17.7143 15.3504 17.6743 15.5404 17.5943 15.7204Z" 

fill="#ffffff"

/>
</svg>
